HIERARCHY
ROOT Hips
{
	OFFSET 0.00000 0.00000 0.00000
	CHANNELS 6 Xposition Yposition Zposition Zrotation Yrotation Xrotation 
	JOINT LHipJoint
	{
		OFFSET 0 0 0
		CHANNELS 3 Zrotation Yrotation Xrotation
		JOINT LeftUpLeg
		{
			OFFSET 1.53139 -1.83434 0.76626
			CHANNELS 3 Zrotation Yrotation Xrotation
			JOINT LeftLeg
			{
				OFFSET 2.56112 -7.03663 0.00000
				CHANNELS 3 Zrotation Yrotation Xrotation
				JOINT LeftFoot
				{
					OFFSET 2.59983 -7.14299 0.00000
					CHANNELS 3 Zrotation Yrotation Xrotation
					JOINT LeftToeBase
					{
						OFFSET 0.13742 -0.37757 2.00054
						CHANNELS 3 Zrotation Yrotation Xrotation
						End Site
						{
							OFFSET 0.00000 -0.00000 1.02897
						}
					}
				}
			}
		}
	}
	JOINT RHipJoint
	{
		OFFSET 0 0 0
		CHANNELS 3 Zrotation Yrotation Xrotation
		JOINT RightUpLeg
		{
			OFFSET -1.40122 -1.83435 0.76627
			CHANNELS 3 Zrotation Yrotation Xrotation
			JOINT RightLeg
			{
				OFFSET -2.54052 -6.98003 0.00000
				CHANNELS 3 Zrotation Yrotation Xrotation
				JOINT RightFoot
				{
					OFFSET -2.63179 -7.23079 0.00000
					CHANNELS 3 Zrotation Yrotation Xrotation
					JOINT RightToeBase
					{
						OFFSET -0.24131 -0.66299 2.03908
						CHANNELS 3 Zrotation Yrotation Xrotation
						End Site
						{
							OFFSET -0.00000 -0.00000 1.07391
						}
					}
				}
			}
		}
	}
	JOINT LowerBack
	{
		OFFSET 0 0 0
		CHANNELS 3 Zrotation Yrotation Xrotation
		JOINT Spine
		{
			OFFSET 0.01174 2.10302 -0.29778
			CHANNELS 3 Zrotation Yrotation Xrotation
			JOINT Spine1
			{
				OFFSET 0.00772 2.13227 -0.01247
				CHANNELS 3 Zrotation Yrotation Xrotation
				JOINT Neck
				{
					OFFSET 0 0 0
					CHANNELS 3 Zrotation Yrotation Xrotation
					JOINT Neck1
					{
						OFFSET -0.09219 1.60848 0.31481
						CHANNELS 3 Zrotation Yrotation Xrotation
						JOINT Head
						{
							OFFSET 0.13974 1.65456 -0.31134
							CHANNELS 3 Zrotation Yrotation Xrotation
							End Site
							{
								OFFSET 0.04742 1.69515 -0.14578
							}
						}
					}
				}
				JOINT LeftShoulder
				{
					OFFSET 0 0 0
					CHANNELS 3 Zrotation Yrotation Xrotation
					JOINT LeftArm
					{
						OFFSET 3.24909 1.02882 -0.23993
						CHANNELS 3 Zrotation Yrotation Xrotation
						JOINT LeftForeArm
						{
							OFFSET 5.32955 -0.00000 -0.00000
							CHANNELS 3 Zrotation Yrotation Xrotation
							JOINT LeftHand
							{
								OFFSET 3.69232 -0.00000 -0.00000
								CHANNELS 3 Zrotation Yrotation Xrotation
								JOINT LeftFingerBase
								{
									OFFSET 0 0 0
									CHANNELS 3 Zrotation Yrotation Xrotation
									JOINT LeftHandIndex1
									{
										OFFSET 0.53660 -0.00000 -0.00000
										CHANNELS 3 Zrotation Yrotation Xrotation
										End Site
										{
											OFFSET 0.43262 -0.00000 -0.00000
										}
									}
								}
								JOINT LThumb
								{
									OFFSET 0 0 0
									CHANNELS 3 Zrotation Yrotation Xrotation
									End Site
									{
										OFFSET 0.43922 -0.00000 0.43922
									}
								}
							}
						}
					}
				}
				JOINT RightShoulder
				{
					OFFSET 0 0 0
					CHANNELS 3 Zrotation Yrotation Xrotation
					JOINT RightArm
					{
						OFFSET -3.21387 0.93002 -0.34594
						CHANNELS 3 Zrotation Yrotation Xrotation
						JOINT RightForeArm
						{
							OFFSET -5.23431 -0.00000 0.00000
							CHANNELS 3 Zrotation Yrotation Xrotation
							JOINT RightHand
							{
								OFFSET -3.55301 -0.00000 -0.00000
								CHANNELS 3 Zrotation Yrotation Xrotation
								JOINT RightFingerBase
								{
									OFFSET 0 0 0
									CHANNELS 3 Zrotation Yrotation Xrotation
									JOINT RightHandIndex1
									{
										OFFSET -0.77252 -0.00000 -0.00000
										CHANNELS 3 Zrotation Yrotation Xrotation
										End Site
										{
											OFFSET -0.62283 -0.00000 -0.00000
										}
									}
								}
								JOINT RThumb
								{
									OFFSET 0 0 0
									CHANNELS 3 Zrotation Yrotation Xrotation
									End Site
									{
										OFFSET -0.63234 -0.00000 0.63234
									}
								}
							}
						}
					}
				}
			}
		}
	}
}
MOTION
Frames: 6
Frame Time: 0.047619
0.00 0.00 0.00 2.8751 74.4394 4.4811 0.0000 0.0000 0.0000 -22.6420 -4.1589 -7.5888 0.9677 6.2632 17.5499 -0.1618 -10.6711 -4.5911 0.1916 2.8190 7.7751 0.0000 0.0000 0.0000 15.5507 1.2975 -1.9074 -5.8629 -14.2941 44.4289 -0.1770 0.0124 7.9494 -0.4654 -4.3760 12.1370 -2.1033 3.7673 11.7312 -0.5648 4.7616 1.9558 -0.1532 2.4025 -4.6319 -10.8261 -5.3297 -11.6233 6.3704 -5.8008 37.7581 3.8503 -2.6591 15.9116 0.0000 -0.0000 0.0000 -76.3929 -5.2324 65.4397 103.0209 -59.3496 -71.2518 -0.0000 0.0000 -7.0601 21.9271 29.0898 11.0734 -7.1250 0.0000 -0.0000 -10.4985 60.6274 -4.0254 0.0000 -0.0000 0.0000 87.7899 -4.4802 48.7081 -105.0201 59.1302 -72.9698 0.0000 -0.0000 -16.8601 -11.4751 8.1011 -1.6386 7.1250 -0.0000 -0.0000 11.1212 -21.7698 6.3208
0.00 0.00 0.00 5.1966 64.8695 4.8385 0.0000 0.0000 0.0000 -22.6182 1.0930 -4.2801 0.6608 5.1990 14.4771 0.1305 -5.0497 -6.8513 0.0061 0.5032 1.3827 0.0000 0.0000 0.0000 10.8980 -6.8540 -13.3153 -8.2875 -16.3267 53.5919 -0.0744 -0.5734 -5.3953 -0.1079 -2.1183 5.8328 -5.0362 1.7940 10.9470 -0.3504 1.8017 1.3902 2.1978 0.9955 -4.8272 -13.9546 -8.5685 -10.1303 9.4249 -11.6221 35.2142 4.5702 -5.3441 15.5663 -0.0000 -0.0000 0.0000 -78.4483 -0.2448 67.0121 101.3381 -59.5086 -69.8029 -0.0000 0.0000 -6.3869 23.8406 30.1617 12.5182 -7.1250 0.0000 -0.0000 -8.9638 62.1896 -3.7628 -0.0000 -0.0000 0.0000 83.8713 -7.2601 53.2491 -106.1748 58.9880 -73.9602 0.0000 -0.0000 -16.9516 -13.6609 5.5226 -1.3399 7.1250 -0.0000 -0.0000 9.6813 -24.3022 4.9064
0.00 0.00 0.00 3.0558 50.8917 2.9789 0.0000 0.0000 0.0000 -21.1782 3.1211 -4.0132 0.8852 5.9974 16.7768 0.1947 5.7308 -12.3685 0.0698 -1.7049 -4.6907 0.0000 0.0000 0.0000 9.4632 -8.8525 -19.5314 -4.6470 -12.9748 39.2744 -0.1214 -8.8102 -14.5937 -0.4215 -4.1670 11.5469 -4.1289 0.9632 10.9684 -0.3073 0.7814 0.9465 1.8851 0.4828 -5.2151 -13.8314 -8.8116 -10.7809 9.7377 -12.3483 34.7753 4.4831 -5.6720 15.6358 -0.0000 0.0000 0.0000 -75.7910 -0.0791 68.0256 98.3923 -59.7322 -67.2614 -0.0000 0.0000 -10.9351 19.8776 34.8038 11.6600 -7.1250 0.0000 -0.0000 -17.3303 65.6669 -8.7676 -0.0000 0.0000 0.0000 82.0384 -8.0422 54.6518 -104.9013 59.1441 -72.8678 0.0000 -0.0000 -18.1670 -13.7284 5.6384 -1.3750 7.1250 -0.0000 -0.0000 9.6246 -24.1831 4.9038
0.00 0.00 0.00 1.2260 24.9492 0.9000 0.0000 0.0000 0.0000 -13.1787 5.5868 -0.2032 2.7028 10.1977 29.6194 -2.0383 24.2935 -10.1260 0.1761 2.7034 7.4541 0.0000 0.0000 0.0000 18.3151 -3.8039 -17.3971 -2.5733 -9.9700 28.8796 -0.3165 -3.9141 -12.8016 -0.0117 -0.6995 1.9223 -2.5399 -1.4606 10.6348 2.0607 -2.1205 0.9930 3.8954 -0.9737 -4.7537 -14.2547 -8.9654 -11.2899 10.6330 -13.2201 34.0537 4.6940 -6.1172 15.6681 0.0000 0.0000 0.0000 -72.3531 -1.8068 70.1629 92.8770 -59.9687 -62.4913 -0.0000 0.0000 -6.5584 11.3691 30.8899 5.8937 -7.1250 0.0000 -0.0000 -23.1772 59.8489 -8.6804 0.0000 0.0000 0.0000 81.4219 -8.5086 55.1163 -103.3895 59.3116 -71.5688 0.0000 -0.0000 -17.1972 -12.5482 5.2986 -1.1775 7.1250 -0.0000 -0.0000 10.5184 -24.5528 5.2820
0.00 0.00 0.00 0.8461 18.1952 -0.7094 0.0000 0.0000 0.0000 -12.1163 1.7968 -7.4692 6.1045 14.5289 45.3998 -0.0733 4.8025 -1.5113 0.0597 1.5765 4.3366 0.0000 0.0000 0.0000 21.5861 1.2836 -9.9865 -2.2228 -9.3156 26.7876 -0.3951 -5.1705 -14.9035 -0.2382 -3.1410 8.6714 -0.6486 -1.3608 11.6466 1.8227 -1.7762 1.3684 2.5529 -0.8413 -5.0174 -13.7970 -8.8667 -11.8600 10.2963 -13.1560 34.6655 4.4805 -6.0744 16.0161 -0.0000 0.0000 0.0000 -74.2364 -0.5470 69.3933 94.3426 -59.9286 -63.7599 -0.0000 0.0000 -7.8541 13.6427 29.6581 6.8484 -7.1250 0.0000 -0.0000 -19.8541 59.2328 -7.0761 -0.0000 0.0000 0.0000 79.1023 -7.0182 55.7051 -104.6521 59.1731 -72.6538 0.0000 -0.0000 -17.0257 -10.1724 6.1347 -1.0985 7.1250 -0.0000 -0.0000 12.2005 -23.7646 6.3899
0.00 0.00 0.00 0.3584 0.9402 -0.4868 0.0000 0.0000 0.0000 -13.7721 -12.4842 -16.8925 0.9348 6.1588 17.2459 -0.0142 -2.5309 -0.5592 0.4557 -4.3304 -12.0081 0.0000 0.0000 0.0000 25.7645 6.2652 4.7307 -1.4808 -7.6887 21.7724 -0.9340 0.9507 -17.9710 -0.3935 -4.0278 11.1548 0.9782 0.3782 10.1559 1.5774 0.6807 1.5109 0.9969 0.3325 -4.1289 -14.0264 -8.2917 -11.1133 9.9157 -12.3325 34.6543 4.5282 -5.8841 15.6636 0.0000 0.0000 0.0000 -77.3596 2.5511 67.7304 93.0896 -59.9639 -62.6753 -0.0000 0.0000 -5.9905 16.3922 29.5330 8.2505 -7.1250 0.0000 -0.0000 -16.8545 59.7458 -6.1732 0.0000 0.0000 0.0000 78.5247 -5.8483 55.2758 -102.8592 59.3659 -71.1127 0.0000 -0.0000 -12.8152 -7.5556 7.4540 -0.9858 7.1250 -0.0000 -0.0000 13.9807 -22.5178 7.7887
